<svg xmlns="http://www.w3.org/2000/svg" viewBox="0 0 23 23"><path d="M1 1h7v7h-7zM15 1h7v7h-7zM2 2v5h5v-5zM13 2h1v4h-1zM16 2v5h5v-5zM3 3h3v3h-3zM9 3h1v2h1v1h2v1h-1v1h-1v-1h-1v2h-1zM11 3h1v2h-1zM17 3h3v3h-3zM13 7h1v1h-1zM1 9h1v1h1v-1h5v1h-4v1h1v1h2v1h-1v1h-5v-1h2v-2h-1v1h-1zM10 9h3v1h2v1h1v1h-1v1h1v1h-1v2h-1v-1h-1v-2h-2v-2h1v1h1v-1h-1v-1h-1v1h-1zM15 9h5v2h1v1h-1v1h-2v1h1v1h-2v1h3v-1h1v2h-2v1h-1v1h-2v2h-2v1h-1v-1h-1v-1h1v-1h-1v-2h1v1h4v-1h-1v-3h1v-1h-1v-1h2v-1h1v-1h-1v1h-1v-1h-2zM8 10h1v3h-1v-1h-1v-1h1zM21 10h1v1h-1zM7 13h1v1h-1zM21 13h1v2h-1zM9 14h3v1h1v1h-3v-1h-1zM1 15h7v7h-7zM2 16v5h5v-5zM9 16h1v3h2v1h-3zM3 17h3v3h-3zM21 17h1v1h-1zM19 18h1v1h-1zM14 19v1h1v-1zM18 19h1v1h1v1h-2zM9 21h1v1h-1zM16 21h1v1h-1zM20 21h1v1h-1z"/></svg>