<svg xmlns="http://www.w3.org/2000/svg" viewBox="0 0 23 23"><path d="M1 1h7v7h-7zM11 1h1v1h-1zM15 1h7v7h-7zM2 2v5h5v-5zM10 2h1v5h-1v1h1v1h-2v-6h1zM12 2h2v8h1v-1h5v1h2v1h-1v2h-3v2h-3v-1h-1v-2h1v1h1v1h1v-1h-1v-1h-1v-1h-2v-2h-1v-1h1v-2h-1v-2h1v-1h-1zM16 2v5h5v-5zM3 3h3v3h-3zM17 3h3v3h-3zM11 7h1v1h-1zM1 9h1v2h-1zM3 9h5v1h-3v1h-1v-1h-1zM11 9h1v2h-2v1h-1v-1h-1v-1h3zM3 11h1v2h-1v1h-1v-1h-1v-1h2zM7 11h1v1h-1zM12 11h1v1h-1zM17 11v1h1v-1zM6 12h1v1h1v1h-3v-1h1zM10 12h1v1h-1zM9 13h1v2h-1zM12 13h1v1h-1zM21 13h1v2h-1v1h-1v1h-2v-2h1v-1h2zM13 14h1v1h1v2h-1v-1h-1zM1 15h7v7h-7zM11 15h1v1h-1zM2 16v5h5v-5zM9 16h2v1h1v-1h1v1h1v1h-3v1h-1v1h-1zM3 17h3v3h-3zM15 17h1v1h-1zM20 17h2v1h-2zM16 18h3v1h-3zM11 19h4v2h-1v-1h-2v1h-1v1h-2v-1h1v-1h1zM17 20h3v1h-1v1h-1v-1h-1zM12 21h1v1h-1zM15 21h1v1h-1zM20 21h1v1h-1z"/></svg>